<svg xmlns="http://www.w3.org/2000/svg" viewBox="0 0 29.55 30" height="100%" width="100%">
    <path fill="#FFFFFF" d="M14.73,30a14.79,14.79,0,0,1-3.84-.51,1.72,1.72,0,1,1,.9-3.33A11.55,11.55,0,1,0,3.62,12a1.73,1.73,0,0,1-3.34-.89A14.72,14.72,0,0,1,2.94,5.8,15.19,15.19,0,0,1,12.73.15,14.9,14.9,0,0,1,24,3.16,15.19,15.19,0,0,1,29.63,13a14.85,14.85,0,0,1-3,11.25,15.2,15.2,0,0,1-9.78,5.65A14.83,14.83,0,0,1,14.73,30Zm3-8.7a7.06,7.06,0,0,0,3.81-9.19,1.73,1.73,0,1,0-3.19,1.32,3.58,3.58,0,1,1-4.68-1.94A1.73,1.73,0,0,0,12.31,8.3a7,7,0,0,0,0,13,7.12,7.12,0,0,0,2.71.54A6.87,6.87,0,0,0,17.69,21.3Z" transform="translate(-0.22 0)" />
</svg>